#!OML:ASF H:\Pregnant\Project 1\Capture day 1\Session 1\femalepreg.ASF
:FULLY-SPECIFIED
:DEGREES
666
root 9.79232 15.325 24.375 391.362 -97.7021 -372.666
lowerback -16.0901 -0.184299 -7.4272
upperback -4.1616 0.798815 -1.97768
thorax 4.47753 0.227904 2.25094
lowerneck -18.3164 -1.63578 -0.0804687
upperneck 32.0204 -6.17153 7.76317
head 14.3726 -1.94151 1.99228
rclavicle 8.94531e-016 -3.18055e-014
rhumerus -38.5416 -3.00255 -80.9026
rradius 31.4121
rwrist 1.06271
rhand -8.86957 -11.4562
rfingers 7.12502
rthumb 17.072 -40.7261
lclavicle 8.94531e-016 -3.18055e-014
lhumerus -36.0326 -0.422904 79.2795
lradius 32.3607
lwrist 24.8754
lhand -23.7509 -0.606253
lfingers 7.12502
lthumb 2.71789 29.3562
rfemur -54.7777 22.8647 -4.54892
rtibia 42.4738
rfoot -16.0715 -18.7883
rtoes -6.01809
lfemur -19.7538 -18.6803 -19.9018
ltibia 16.0516
lfoot -12.2645 1.66983
ltoes -14.131
667
root 9.73166 15.3294 24.3308 392.765 -97.4749 -374.013
lowerback -16.224 -0.268047 -7.48586
upperback -4.20145 0.703276 -1.9407
thorax 4.51381 0.178765 2.30525
lowerneck -18.3918 -1.65344 -0.154805
upperneck 31.8966 -6.11606 7.69431
head 14.3283 -1.93124 1.98485
rclavicle 6.80837e-015 2.06736e-014
rhumerus -38.9463 -3.13691 -80.6118
rradius 31.052
rwrist 0.666297
rhand -9.44018 -11.707
rfingers 7.12502
rthumb 16.5227 -41.0235
lclavicle 6.80837e-015 2.06736e-014
lhumerus -36.0819 -0.64157 79.0113
lradius 32.5159
lwrist 25.2985
lhand -24.719 -0.717451
lfingers 7.12502
lthumb 1.78291 29.2548
rfemur -54.8867 22.8633 -4.93149
rtibia 41.4301
rfoot -15.9662 -18.2801
rtoes -6.82477
lfemur -18.9838 -18.7756 -19.8967
ltibia 14.9272
lfoot -12.0213 1.483
ltoes -14.5083
668
root 9.67117 15.3317 24.2842 394.353 -97.2541 -375.569
lowerback -16.345 -0.352392 -7.57211
upperback -4.23164 0.611638 -1.90497
thorax 4.55284 0.131312 2.37417
lowerneck -18.4599 -1.67413 -0.230905
upperneck 31.7688 -6.06253 7.6216
head 14.2807 -1.92276 1.97584
rclavicle 3.93097e-014 -1.51076e-014
rhumerus -39.3184 -3.27489 -80.3187
rradius 30.6363
rwrist 0.282319
rhand -10.0488 -11.9765
rfingers 7.12502
rthumb 15.9367 -41.3408
lclavicle 3.93097e-014 -1.51076e-014
lhumerus -36.1222 -0.800848 78.7126
lradius 32.6701
lwrist 25.7494
lhand -25.6675 -0.955549
lfingers 7.12502
lthumb 0.866915 29.0224
rfemur -54.9376 22.8081 -5.20986
rtibia 40.5308
rfoot -15.6953 -17.9356
rtoes -7.83485
lfemur -18.1941 -18.8738 -19.9058
ltibia 13.8164
lfoot -11.7843 1.28483
ltoes -14.7868
669
root 9.6103 15.332 24.2344 396.01 -97.0479 -377.231
lowerback -16.447 -0.435898 -7.6911
upperback -4.25039 0.526052 -1.85983
thorax 4.5929 0.0867525 2.47239
lowerneck -18.5225 -1.69539 -0.325611
upperneck 31.6453 -6.00581 7.55326
head 14.2345 -1.91465 1.97263
rclavicle 2.03754e-015 -1.59028e-014
rhumerus -39.6611 -3.37734 -80.0246
rradius 30.1709
rwrist -0.0982949
rhand -10.7035 -12.2682
rfingers 7.12502
rthumb 15.3061 -41.6818
lclavicle 2.03754e-015 -1.59028e-014
lhumerus -36.1559 -0.882058 78.3865
lradius 32.8272
lwrist 26.2753
lhand -26.5566 -1.27638
lfingers 7.12502
lthumb 0.00818673 28.7034
rfemur -54.9121 22.703 -5.34421
rtibia 39.7915
rfoot -15.1789 -17.7109
rtoes -9.12943
lfemur -17.3656 -18.9728 -19.9217
ltibia 12.7252
lfoot -11.561 1.09183
ltoes -14.9981
670
root 9.54932 15.3304 24.1822 397.708 -96.8503 -378.962
lowerback -16.5356 -0.516179 -7.82123
upperback -4.26085 0.446498 -1.80957
thorax 4.63433 0.0451548 2.58332
lowerneck -18.5773 -1.71718 -0.425979
upperneck 31.5253 -5.94755 7.48162
head 14.1882 -1.90718 1.9695
rclavicle -8.32411e-015 2.3059e-014
rhumerus -39.9758 -3.47009 -79.7244
rradius 29.6575
rwrist -0.440053
rhand -11.3527 -12.5569
rfingers 7.12502
rthumb 14.6807 -42.0172
lclavicle -8.32411e-015 2.3059e-014
lhumerus -36.1784 -0.901629 78.032
lradius 32.9937
lwrist 26.9301
lhand -27.3544 -1.61289
lfingers 7.12502
lthumb -0.762333 28.3655
rfemur -54.7974 22.4825 -5.28468
rtibia 39.2349
rfoot -14.3901 -17.4544
rtoes -10.5389
lfemur -16.5125 -19.079 -19.9338
ltibia 11.6556
lfoot -11.3482 0.907033
ltoes -15.1399
671
root 9.48841 15.3268 24.1283 399.44 -96.6568 -380.751
lowerback -16.61 -0.587183 -7.94119
upperback -4.2667 0.377257 -1.76381
thorax 4.67265 0.00887434 2.68567
lowerneck -18.6235 -1.74182 -0.534937
upperneck 31.4089 -5.89505 7.41931
head 14.1428 -1.90229 1.97078
rclavicle -2.16427e-014 -7.95139e-015
rhumerus -40.2726 -3.55601 -79.4333
rradius 29.1043
rwrist -0.732366
rhand -12.0139 -12.8556
rfingers 7.12502
rthumb 14.0436 -42.3612
lclavicle -2.16427e-014 -7.95139e-015
lhumerus -36.1868 -0.878987 77.6423
lradius 33.1702
lwrist 27.7244
lhand -28.0428 -1.89822
lfingers 7.12502
lthumb -1.42729 28.0767
rfemur -54.5784 22.1122 -5.00529
rtibia 38.8859
rfoot -13.3998 -17.0304
rtoes -11.801
lfemur -15.6393 -19.1949 -19.9402
ltibia 10.6027
lfoot -11.1349 0.740976
ltoes -15.3196
672
root 9.42754 15.3223 24.0726 401.144 -96.4658 -382.536
lowerback -16.6728 -0.643394 -8.03953
upperback -4.26831 0.32406 -1.72837
thorax 4.70838 -0.0192498 2.76803
lowerneck -18.6562 -1.77147 -0.633727
upperneck 31.2943 -5.85666 7.36207
head 14.0963 -1.90217 1.96991
rclavicle 7.1811e-015 -1.74931e-014
rhumerus -40.5609 -3.67677 -79.1464
rradius 28.5194
rwrist -0.933259
rhand -12.6713 -13.173
rfingers 7.12502
rthumb 13.4101 -42.7214
lclavicle 7.1811e-015 -1.74931e-014
lhumerus -36.1759 -0.83768 77.2166
lradius 33.3521
lwrist 28.6432
lhand -28.6229 -2.07477
lfingers 7.12502
lthumb -1.98749 27.8957
rfemur -54.2497 21.5863 -4.50121
rtibia 38.7569
rfoot -12.3588 -16.3324
rtoes -12.5566
lfemur -14.7474 -19.4418 -19.8985
ltibia 9.54903
lfoot -10.8851 0.713118
ltoes -15.5601
673
root 9.36663 15.3174 24.0152 402.801 -96.2762 -384.292
lowerback -16.7327 -0.684349 -8.11058
upperback -4.26683 0.287129 -1.70266
thorax 4.74484 -0.0392146 2.82793
lowerneck -18.6773 -1.80599 -0.734161
upperneck 31.1841 -5.83178 7.31913
head 14.051 -1.90669 1.97286
rclavicle 2.6339e-015 -3.10104e-014
rhumerus -40.8415 -3.83572 -78.8674
rradius 27.9077
rwrist -1.03026
rhand -13.3087 -13.5056
rfingers 7.12502
rthumb 12.7956 -43.0935
lclavicle 2.6339e-015 -3.10104e-014
lhumerus -36.1434 -0.78324 76.7593
lradius 33.528
lwrist 29.6312
lhand -29.1097 -2.11138
lfingers 7.12502
lthumb -2.45764 27.8542
rfemur -53.8331 20.934 -3.81269
rtibia 38.8371
rfoot -11.4198 -15.3646
rtoes -12.6298
lfemur -13.8108 -19.6848 -19.8463
ltibia 8.45787
lfoot -10.6131 0.688314
ltoes -15.884
674
root 9.30541 15.3128 23.9565 404.396 -96.0885 -385.996
lowerback -16.7936 -0.703493 -8.14125
upperback -4.26438 0.27331 -1.69658
thorax 4.78112 -0.0475996 2.84889
lowerneck -18.69 -1.84811 -0.819679
upperneck 31.076 -5.82888 7.28759
head 14.0064 -1.91786 1.97397
rclavicle -8.67198e-015 2.06736e-014
rhumerus -41.1204 -4.05219 -78.601
rradius 27.277
rwrist -1.00214
rhand -13.921 -13.8596
rfingers 7.12502
rthumb 12.2053 -43.4834
lclavicle -8.67198e-015 2.06736e-014
lhumerus -36.0827 -0.729203 76.2675
lradius 33.6818
lwrist 30.61
lhand -29.5163 -2.00154
lfingers 7.12502
lthumb -2.85031 27.9592
rfemur -53.3675 20.1949 -3
rtibia 39.0842
rfoot -10.6856 -14.1913
rtoes -12.0174
lfemur -12.8083 -19.9198 -19.7816
ltibia 7.27734
lfoot -10.2956 0.653326
ltoes -16.2625
675
root 9.24355 15.3087 23.8967 405.906 -95.9043 -387.62
lowerback -16.8531 -0.699447 -8.11827
upperback -4.26813 0.281324 -1.71827
thorax 4.80868 -0.0446482 2.81454
lowerneck -18.6895 -1.89399 -0.889635
upperneck 30.9715 -5.8464 7.27674
head 13.9625 -1.93403 1.97716
rclavicle 2.41026e-015 2.70347e-014
rhumerus -41.4056 -4.33657 -78.3532
rradius 26.6324
rwrist -0.84078
rhand -14.4982 -14.2359
rfingers 7.12502
rthumb 11.6487 -43.8921
lclavicle 2.41026e-015 2.70347e-014
lhumerus -36.0061 -0.687466 75.7311
lradius 33.8086
lwrist 31.529
lhand -29.8527 -1.76686
lfingers 7.12502
lthumb -3.17519 28.1892
rfemur -52.9047 19.4446 -2.13987
rtibia 39.4364
rfoot -10.1225 -13.0072
rtoes -11.0405
lfemur -11.6961 -20.1446 -19.7041
ltibia 5.91931
lfoot -9.89346 0.596689
ltoes -16.6999
676
root 9.18089 15.3048 23.836 407.339 -95.7266 -389.167
lowerback -16.9183 -0.681278 -8.06025
upperback -4.2766 0.302483 -1.75299
thorax 4.83334 -0.0349262 2.74932
lowerneck -18.6801 -1.93872 -0.952784
upperneck 30.8703 -5.87097 7.27975
head 13.9192 -1.9511 1.98358
rclavicle -3.23025e-016 -4.37326e-014
rhumerus -41.6872 -4.64763 -78.1226
rradius 25.976
rwrist -0.536092
rhand -15.039 -14.6073
rfingers 7.12502
rthumb 11.1271 -44.2923
lclavicle -3.23025e-016 -4.37326e-014
lhumerus -35.9169 -0.624507 75.1654
lradius 33.8994
lwrist 32.3341
lhand -30.1416 -1.44207
lfingers 7.12502
lthumb -3.45421 28.5097
rfemur -52.4826 18.7169 -1.27122
rtibia 39.8266
rfoot -9.62234 -11.9778
rtoes -10.5781
lfemur -10.39 -20.3584 -19.617
ltibia 4.21851
lfoot -9.33284 0.503684
ltoes -17.1689
677
root 9.11767 15.3012 23.7746 408.709 -95.5647 -390.643
lowerback -16.9988 -0.64733 -7.97997
upperback -4.28478 0.342504 -1.8001
thorax 4.86511 -0.0161596 2.66232
lowerneck -18.6645 -1.98517 -1.01945
upperneck 30.764 -5.90542 7.30709
head 13.8744 -1.97001 1.99858
rclavicle 7.1314e-015 -3.18055e-015
rhumerus -41.955 -4.9746 -77.9021
rradius 25.3176
rwrist -0.117802
rhand -15.5316 -14.9677
rfingers 7.12502
rthumb 10.652 -44.6777
lclavicle 7.1314e-015 -3.18055e-015
lhumerus -35.804 -0.521362 74.5752
lradius 33.9472
lwrist 32.987
lhand -30.3881 -1.08584
lfingers 7.12502
lthumb -3.69228 28.8619
rfemur -52.1347 18.1085 -0.492286
rtibia 40.2052
rfoot -9.21175 -11.2033
rtoes -10.6342
lfemur -8.3944 -20.5601 -19.5332
ltibia 1.25515
lfoot -8.20347 0.27154
ltoes -17.6863
678
root 9.05418 15.2976 23.7125 409.991 -95.4169 -392.021
lowerback -17.1005 -0.608742 -7.89234
upperback -4.29243 0.389139 -1.84583
thorax 4.90833 0.0054236 2.57411
lowerneck -18.6374 -2.02613 -1.08127
upperneck 30.6475 -5.93535 7.34284
head 13.8229 -1.9858 2.01674
rclavicle -6.41081e-015 7.15625e-015
rhumerus -42.1981 -5.29933 -77.677
rradius 24.6593
rwrist 0.415629
rhand -15.9011 -15.2754
rfingers 7.12502
rthumb 10.2956 -45.0034
lclavicle -6.41081e-015 7.15625e-015
lhumerus -35.6797 -0.343817 73.9664
lradius 33.9577
lwrist 33.486
lhand -30.5996 -0.738824
lfingers 7.12502
lthumb -3.8965 29.2053
rfemur -51.8539 17.601 0.209702
rtibia 40.5497
rfoot -8.84569 -10.6672
rtoes -11.3334
lfemur -7.33758 -20.7373 -19.4314
ltibia 3.97569e-014
lfoot -7.81886 0.225148
ltoes -18.2344
679
root 8.99065 15.294 23.6499 411.106 -95.2799 -393.221
lowerback -17.2284 -0.565451 -7.8006
upperback -4.29221 0.444006 -1.88161
thorax 4.97342 0.0303101 2.4961
lowerneck -18.6101 -2.06411 -1.14502
upperneck 30.5177 -5.95997 7.38388
head 13.7657 -1.99882 2.03805
rclavicle -6.62201e-015 6.36111e-015
rhumerus -42.4031 -5.63899 -77.4301
rradius 24.0031
rwrist 1.06656
rhand -16.1644 -15.5144
rfingers 7.12502
rthumb 10.0416 -45.2548
lclavicle -6.62201e-015 6.36111e-015
lhumerus -35.5413 -0.0813487 73.3494
lradius 33.9419
lwrist 33.846
lhand -30.7828 -0.422862
lfingers 7.12502
lthumb -4.07342 29.5179
rfemur -51.6221 17.2312 0.823791
rtibia 40.8637
rfoot -8.55966 -10.3532
rtoes -12.3423
lfemur -6.97404 -20.887 -19.3066
ltibia -2.06736e-014
lfoot -7.97309 0.321528
ltoes -18.8378
680
root 8.92759 15.2908 23.5876 411.978 -95.1531 -394.162
lowerback -17.3822 -0.518078 -7.68895
upperback -4.28487 0.503405 -1.9101
thorax 5.06011 0.0568629 2.41585
lowerneck -18.5873 -2.09495 -1.1921
upperneck 30.3733 -5.9768 7.42265
head 13.7024 -2.00673 2.0566
rclavicle 1.28216e-014 -1.03368e-014
rhumerus -42.567 -5.96411 -77.1787
rradius 23.3652
rwrist 1.79586
rhand -16.2903 -15.7093
rfingers 7.12502
rthumb 9.92011 -45.4556
lclavicle 1.28216e-014 -1.03368e-014
lhumerus -35.399 0.277954 72.7176
lradius 33.9128
lwrist 34.085
lhand -30.951 -0.161682
lfingers 7.12502
lthumb -4.23581 29.7759
rfemur -51.4222 16.9825 1.36002
rtibia 41.1628
rfoot -8.43202 -10.1677
rtoes -13.1186
lfemur -6.62321 -21.0097 -19.1649
ltibia 2.54444e-014
lfoot -8.10857 0.418571
ltoes -19.4808
